HIERARCHY
ROOT hip
{
	OFFSET 0.000000 0.000000 0.000000 
	CHANNELS 6 Xposition Yposition Zposition Xrotation Zrotation Yrotation
	JOINT abdomen
	{
		OFFSET 0.000000 3.402643 0.000000 
		CHANNELS 3 Xrotation Zrotation Yrotation
		JOINT chest
		{
			OFFSET 0.000000 8.438565 -0.680529 
			CHANNELS 3 Xrotation Zrotation Yrotation
			JOINT neck
			{
				OFFSET 0.000000 10.207942 -0.272212 
				CHANNELS 3 Xrotation Zrotation Yrotation
				JOINT head
				{
					OFFSET 0.000000 3.130431 0.000000 
					CHANNELS 3 Xrotation Zrotation Yrotation
					End Site
					{
						OFFSET 0.000000 3.130435 0.000000 
					}
				}
			}
			JOINT lCollar
			{
				OFFSET 3.470700 6.669187 -0.816635 
				CHANNELS 3 Yrotation Zrotation Xrotation
				JOINT lShldr
				{
					OFFSET 3.198488 0.000000 0.000000 
					CHANNELS 3 Zrotation Yrotation Xrotation
					JOINT lForeArm
					{
						OFFSET 10.139888 0.000000 0.000000 
						CHANNELS 3 Yrotation Zrotation Xrotation
						JOINT lHand
						{
							OFFSET 8.370511 0.000000 0.000000 
							CHANNELS 3 Zrotation Yrotation Xrotation
							End Site
							{
								OFFSET 4.083176 0.000000 0.000000 
							}
						}
					}
				}
			}
			JOINT rCollar
			{
				OFFSET -3.470700 6.669187 -0.816635 
				CHANNELS 3 Yrotation Zrotation Xrotation
				JOINT rShldr
				{
					OFFSET -3.198488 0.000000 0.000000 
					CHANNELS 3 Zrotation Yrotation Xrotation
					JOINT rForeArm
					{
						OFFSET -10.139888 0.000000 0.000000 
						CHANNELS 3 Yrotation Zrotation Xrotation
						JOINT rHand
						{
							OFFSET -8.370511 0.000000 0.000000 
							CHANNELS 3 Zrotation Yrotation Xrotation
							End Site
							{
								OFFSET -4.083176 0.000000 0.000000 
							}
						}
					}
				}
			}
		}
	}
	JOINT lThigh
	{
		OFFSET 5.308129 -1.633274 1.361059 
		CHANNELS 3 Xrotation Zrotation Yrotation
		JOINT lShin
		{
			OFFSET -2.041588 -20.007561 0.000000 
			CHANNELS 3 Xrotation Zrotation Yrotation
			JOINT lFoot
			{
				OFFSET 0.000000 -19.190928 -1.224953 
				CHANNELS 3 Xrotation Yrotation Zrotation
				End Site
				{
					OFFSET 0.000000 -2.449906 4.627600 
				}
			}
		}
	}
	JOINT rThigh
	{
		OFFSET -5.308129 -1.633274 1.361059 
		CHANNELS 3 Xrotation Zrotation Yrotation
		JOINT rShin
		{
			OFFSET 2.041588 -20.007561 0.000000 
			CHANNELS 3 Xrotation Zrotation Yrotation
			JOINT rFoot
			{
				OFFSET 0.000000 -19.190928 -1.224953 
				CHANNELS 3 Xrotation Yrotation Zrotation
				End Site
				{
					OFFSET 0.000000 -2.449906 4.627600 
				}
			}
		}
	}
}
MOTION
Frames: 16
Frame Time: 0.033333
17.634172 44.007004 -45.787102 0.898439 0.087880 2.950612 21.220957 -0.300767 -0.253020 -20.839844 0.000000 0.000000 1.846746 3.632145 -1.356519 -2.520832 -1.255077 0.218355 -4.754609 -0.109184 -0.002653 -46.138428 -2.956654 27.509014 -7.278600 -0.113722 -18.380264 -2.685190 -6.869427 0.173326 4.754609 0.109184 -0.002672 49.156326 -5.202113 -19.999023 25.755466 -0.155846 13.278612 1.999245 1.213975 -0.518250 3.687664 6.050363 3.486857 -3.963914 -3.679034 7.777050 -0.419702 -0.084430 1.473735 3.817540 -17.391552 -10.092614 -5.425985 3.288272 -12.272132 11.781622 0.403051 9.472557 
18.049473 43.942032 -45.790657 0.859379 0.175761 2.795635 21.318512 -0.274069 -0.295688 -20.839844 0.000000 0.000000 0.876830 3.782508 -1.462175 -2.520832 -1.255077 0.218355 -4.754609 -0.109184 -0.002653 -54.249245 -1.849514 32.381927 -7.507532 -0.094675 -17.258480 -4.859051 -8.612446 0.345756 4.754609 0.109184 -0.002672 56.370956 -6.983600 -18.858330 29.175289 -0.232585 15.498469 3.652062 1.957752 -0.550390 3.705448 5.432849 2.775453 -3.923364 -3.639299 8.485190 -0.442497 -0.122678 2.243620 3.425881 -18.149677 -7.494229 -5.399002 3.182194 -14.402702 13.889414 0.528553 8.454311 
18.391653 43.832870 -45.816536 0.722660 0.195297 2.316950 21.445417 -0.252124 -0.298416 -20.839844 0.000000 0.000000 0.206278 4.067266 -1.294269 -2.520832 -1.255077 0.218355 -4.754609 -0.109184 -0.002653 -61.495663 -0.726636 34.731606 -7.131371 -0.078553 -15.918072 -6.531487 -9.817907 0.518716 4.754609 0.109184 -0.002672 62.766384 -8.428571 -17.024473 31.316496 -0.250607 16.019251 5.223327 2.394825 -0.476091 3.836063 5.008012 1.744246 -3.923628 -3.571504 9.897896 -0.526344 -0.156189 2.691630 2.733658 -18.542873 -4.595814 -5.376556 2.977057 -16.117746 16.941238 0.444530 5.019786 
18.620075 43.706467 -45.813011 0.312504 0.302730 1.613031 21.621304 -0.295001 -0.295538 -20.839844 0.000000 0.000000 0.018999 4.392924 -0.932885 -2.520832 -1.255077 0.218355 -4.754609 -0.109184 -0.002653 -67.812378 0.379611 35.040859 -6.338915 -0.073260 -15.483545 -7.554190 -9.698995 0.564296 4.754609 0.109184 -0.002672 67.904877 -9.218884 -14.516294 31.245028 -0.256285 16.222631 5.474142 3.028473 -0.433773 4.310294 4.613227 1.060300 -3.836790 -3.504062 11.236119 -0.694974 -0.160519 3.026194 2.127826 -18.365385 -3.509806 -5.394996 2.596353 -14.797181 20.165878 0.026866 0.230114 
18.767841 43.617111 -45.765297 -0.263676 0.322262 0.877423 21.835960 -0.165447 -0.224105 -20.839844 0.000000 0.000000 0.201492 4.625105 -0.648676 -2.520832 -1.255077 0.218355 -4.754609 -0.109184 -0.002653 -72.967018 1.442832 35.198460 -5.787652 -0.092520 -16.766962 -8.181593 -8.568049 0.492030 4.754609 0.109184 -0.002672 71.965370 -9.281805 -12.131762 29.616636 -0.266175 16.518822 4.824255 3.634580 -0.441189 5.203035 4.354987 1.171602 -4.057141 -3.461888 11.864916 -0.745243 -0.198607 3.451633 -3.173870 -18.250269 -1.508577 3.582069 2.780550 -11.637308 17.174652 -0.143680 -0.722521 
18.848545 43.566856 -45.718071 -0.732428 0.234356 0.338801 22.011793 -0.195814 -0.226631 -20.839844 0.000000 0.000000 0.614495 4.709831 -0.555585 -2.520832 -1.255077 0.218355 -4.754609 -0.109184 -0.002653 -76.796295 2.190030 37.635403 -5.347329 -0.119044 -18.667719 -8.374195 -7.866837 0.427009 4.754609 0.109184 -0.002672 75.332611 -9.052631 -10.289899 28.413206 -0.245782 15.933262 4.677782 3.274877 -0.493190 5.893316 4.274573 1.701937 -4.128252 -3.464129 11.908921 -0.786691 -0.231214 3.942029 -6.522044 -17.838663 -0.572931 7.583500 3.042726 -8.187542 14.228018 0.114731 2.830076 
18.880024 43.519135 -45.705376 -1.083986 -0.097639 -0.212996 22.138845 -0.247771 -0.227328 -20.839844 0.000000 0.000000 1.056877 4.863105 -0.467121 -2.520832 -1.255077 0.218355 -4.754609 -0.109184 -0.002653 -79.123337 2.601276 42.250488 -5.423648 -0.129276 -19.274904 -8.128094 -7.798881 0.414908 4.754609 0.109184 -0.002672 78.016159 -9.053719 -8.185596 28.720789 -0.190692 14.113795 5.087714 1.986681 -0.539584 3.885187 4.609012 2.226283 0.994636 -3.458772 11.678926 -3.269817 -0.253677 3.886561 -2.070436 -17.019793 -1.362771 -5.470602 3.267877 -6.559649 18.550289 0.704854 7.774024 
18.854130 43.414551 -45.707405 -1.455115 -0.410024 -0.966147 22.246452 -0.332372 -0.252032 -20.839844 0.000000 0.000000 1.380266 4.892221 -0.006685 -2.520832 -1.255077 0.218355 -4.754609 -0.109184 -0.002653 -79.896484 2.747755 46.851444 -7.072289 -0.115714 -18.493036 -7.446930 -7.556328 0.366232 4.754609 0.109184 -0.002672 79.719330 -9.172744 -4.824120 29.871244 -0.117161 11.865982 5.099546 0.552109 -0.590794 2.107769 4.948624 2.367694 5.638159 -3.393819 12.089273 -5.472239 -0.320230 3.807061 -4.900769 -16.422272 0.008516 -5.528789 3.445457 -4.572289 15.901800 1.118546 13.191682 
18.763767 43.261223 -45.691154 -1.963004 -0.614873 -1.834396 22.383224 -0.347987 -0.238384 -20.839844 0.000000 0.000000 1.540761 4.737090 0.634006 -2.520832 -1.255077 0.218355 -4.754609 -0.109184 -0.002653 -79.716278 2.747908 50.022781 -10.262619 -0.110924 -17.729408 -5.842611 -7.041573 0.278813 4.754609 0.109184 -0.002672 80.576965 -9.967084 -0.524593 33.181847 -0.059566 9.833697 5.095345 -1.196146 -0.614727 0.945133 5.177160 2.298033 9.392201 -3.262388 12.930903 -7.250349 -0.373731 3.672315 -7.925384 -15.969126 2.349254 -5.545166 3.642899 -3.823848 13.440734 1.075138 16.931162 
18.598776 43.082012 -45.650551 -2.597816 -0.634113 -2.676310 22.559225 -0.421058 -0.238403 -20.839844 0.000000 0.000000 1.367193 4.554336 1.225275 -2.520832 -1.255077 0.218355 -4.754609 -0.109184 -0.002653 -79.047264 2.710349 51.143707 -14.971637 -0.087110 -16.818789 -2.553126 -5.932882 0.130315 4.754609 0.109184 -0.002672 80.853477 -11.351539 4.041432 38.671570 -0.078316 10.020768 5.189995 -3.061157 -0.653287 0.340532 5.314803 2.548975 12.437988 -3.135228 13.338915 -8.732837 -0.352381 3.341045 -10.650417 -15.591131 5.124643 -5.539267 3.698039 -3.925068 12.663215 1.136182 19.754980 
18.358130 42.894169 -45.552055 -3.300926 -0.536218 -3.357747 22.764698 -0.529874 -0.254185 -20.839844 0.000000 0.000000 0.903763 4.667915 1.512041 -2.520832 -1.255077 0.218355 -4.754609 -0.109184 -0.002653 -78.206207 2.358065 51.648956 -20.651360 -0.195174 -14.822877 2.960015 -3.848188 0.221719 4.754609 0.109184 -0.002672 80.742485 -13.041506 8.758204 45.128017 -0.229115 14.520139 5.546639 -4.436791 -0.713169 0.126580 5.438478 2.788531 14.939603 -3.019495 13.641485 -10.061926 -0.300718 2.944866 -12.545253 -15.074832 6.646245 -5.541238 3.777134 -2.826321 14.970387 1.720581 21.695122 
18.049961 42.706844 -45.307869 -4.072356 -0.379898 -3.869438 22.960501 -0.640476 -0.292626 -20.839844 0.000000 0.000000 0.689130 5.126177 1.524067 -2.520832 -1.255077 0.218355 -4.754609 -0.109184 -0.002653 -77.240280 1.439242 54.856163 -26.488729 -0.439513 -13.220164 8.416043 -1.657560 0.270675 4.754609 0.109184 -0.002672 79.540512 -15.659196 14.749223 52.957649 -0.447711 21.291862 7.517608 -5.233408 -0.840825 0.447989 5.598363 3.117078 16.909250 -2.940472 13.763541 -11.409416 -0.181351 2.352217 -12.888474 -14.422033 5.890816 -5.559536 3.932114 0.122288 18.322931 2.340915 21.127451 
17.705250 42.537281 -44.909843 -4.853524 -0.107037 -4.112005 23.136778 -0.734939 -0.345957 -20.839844 0.000000 0.000000 1.012537 5.449369 1.522589 -2.520832 -1.255077 0.218355 -4.754609 -0.109184 -0.002653 -75.092819 0.029644 63.145714 -33.579369 -0.499403 -13.193301 9.280881 -0.710216 0.256286 4.754609 0.109184 -0.002672 74.995827 -19.392714 23.857000 63.375248 -0.625010 26.777731 12.041161 -4.963421 -1.008033 1.365372 5.794960 4.068264 18.167238 -2.920508 13.029159 -12.678945 -0.010062 1.466867 -11.782185 -14.018607 4.210166 -5.578135 4.038264 2.429349 19.354467 2.245055 18.849859 
17.362047 42.390553 -44.446342 -5.322309 0.233365 -3.947521 23.244598 -0.802650 -0.387319 -20.839844 0.000000 0.000000 1.277776 5.163671 1.584615 -2.520832 -1.255077 0.218355 -4.754609 -0.109184 -0.002653 -69.783890 -2.417362 73.192345 -45.573456 -0.455685 -11.625535 4.489030 -0.314616 0.115175 4.754609 0.109184 -0.002672 65.496002 -22.587458 35.033028 76.305618 -0.804934 32.039974 18.622381 -1.302437 -0.647857 2.215044 6.052172 5.118796 18.955971 -2.939264 11.706201 -13.843062 0.204827 0.446896 -10.428032 -13.874988 1.843292 -5.579880 4.117392 4.045976 18.803068 1.906773 16.847534 
17.035112 42.277851 -43.974693 -5.078231 0.369637 -3.148081 23.166342 -0.783727 -0.409742 -20.839844 0.000000 0.000000 0.692830 4.346509 1.260724 -2.520832 -1.255077 0.218355 -4.754609 -0.109184 -0.002653 -60.085392 -6.306619 76.907463 -65.035721 -0.327567 -4.049294 -3.930501 0.991063 -0.263573 4.754609 0.109184 -0.002672 53.298916 -24.775644 41.931519 90.043625 -1.113928 42.867508 23.876793 10.488746 2.037650 2.175012 6.635571 5.849566 19.752502 -2.993866 9.978165 -14.832168 0.352223 -0.283718 -9.704161 -13.570024 -1.113000 -5.595053 4.257299 5.872752 18.413635 1.609887 14.890545 
16.692419 42.189503 -43.463982 -3.945313 0.009742 -1.475281 22.833418 -0.624341 -0.390035 -20.839844 0.000000 0.000000 -1.052795 3.622798 0.096398 -2.520832 -1.255077 0.218355 -4.754609 -0.109184 -0.002653 -46.776413 -8.630542 70.766342 -88.795021 -0.109645 8.185180 -14.175558 1.287980 -0.704210 4.754609 0.109184 -0.002672 43.086693 -28.731844 38.912094 103.525642 -1.454164 57.202541 22.461996 27.971199 5.967765 0.867569 7.914193 5.967932 20.882050 -3.067940 7.950489 -15.750037 0.398275 -0.620211 -9.772888 -12.818551 -3.270183 -5.590267 4.320843 6.239653 18.155704 1.302263 12.444455 
